<?xml version="1.0" encoding="utf-8"?>
<!-- Generator: Adobe Illustrator 22.0.1, SVG Export Plug-In . SVG Version: 6.00 Build 0)  -->
<svg version="1.1" id="Capa_1" xmlns="http://www.w3.org/2000/svg" xmlns:xlink="http://www.w3.org/1999/xlink" x="0px" y="0px"
	 viewBox="0 0 95 40" style="enable-background:new 0 0 95 40;" xml:space="preserve">
<style type="text/css">
	.st0{fill:#181818;}
</style>
<g>
	<path class="st0" d="M41.4,11.2c1.9-0.5,3.9-0.4,5.9,0c1.7,0.3,3.4,0.2,5.1,0c0-2,0-4,0-5.9c-1.9,0.4-3.9,0.3-5.8,0
		c-1.7-0.3-3.5-0.2-5.2,0C41.4,7.2,41.3,9.2,41.4,11.2z"/>
	<path class="st0" d="M29.5,7.6c-2.9-1.7-6.3-2.1-9.7-2.2c-4.5,0-9.1,0-13.6,0c-0.2,0-0.5,0-0.7,0.1c0.1,1.1,0,2.2,0.1,3.3
		c0,8.7-0.1,17.4,0,26.2c3.4,0,6.9,0,10.3,0c3.8,0,7.6,0.1,11.2-1.1c4-1.3,7.4-4.4,8.9-8.4c1.2-2.9,1.3-6.2,0.5-9.2
		C35.5,12.6,32.8,9.5,29.5,7.6z M25.1,23.6c-0.7,2-2.2,3.8-4.3,4.4c-1.4,0.4-3,0.2-4.4,0.2c0-5.3,0-10.6,0-15.9c1.5,0,3-0.1,4.4,0.2
		c1.6,0.3,2.8,1.5,3.6,2.9C25.8,17.8,26.1,20.9,25.1,23.6z"/>
	<path class="st0" d="M83.3,22.6c-0.1-0.1-0.2-0.2-0.3-0.3c1.7-0.8,3.5-1.6,4.7-3.1c1.5-1.7,1.8-4.2,1.4-6.3c-0.4-2.4-2-4.4-4.2-5.5
		c-2.5-1.4-5.5-1.8-8.3-1.8c-6.3,0-12.6,0-18.8,0c0.1,3.4,0,6.8,0,10.2c0,6.4,0,12.9,0,19.3c3.7,0.1,7.4,0,11.1,0
		c0-3.8,0-7.5,0-11.2c1.1-0.1,2.3,0,3.4,0c1.7,3.8,3.5,7.5,5.1,11.2c4,0,8.1,0,12.1,0C87.5,30.8,85.3,26.7,83.3,22.6z M77.5,16.1
		c-0.8,0.9-2.1,1.2-3.3,1.2c-1.8,0.1-3.5,0-5.3,0c0-1.9,0-3.7,0-5.6c1.8,0,3.7,0,5.5,0c1.1,0,2.3,0.3,3.1,1.2
		C78.2,13.8,78.2,15.2,77.5,16.1z"/>
	<path class="st0" d="M46.9,13.7c-1.8-0.4-3.7-0.3-5.5,0c-0.1,7.1,0,14.2,0,21.3c3.7,0,7.4,0,11.1,0c0-7.1,0-14.2,0-21.2
		C50.6,14,48.7,14.1,46.9,13.7z"/>
</g>
</svg>
