<?xml version="1.0" encoding="utf-8"?>
<!-- Generator: Adobe Illustrator 22.0.1, SVG Export Plug-In . SVG Version: 6.00 Build 0)  -->
<svg version="1.1" id="Layer_1" xmlns="http://www.w3.org/2000/svg" xmlns:xlink="http://www.w3.org/1999/xlink" x="0px" y="0px"
	 viewBox="0 0 110 40" style="enable-background:new 0 0 110 40;" xml:space="preserve">
<style type="text/css">
	.st0{clip-path:url(#SVGID_2_);}
	.st1{clip-path:url(#SVGID_4_);}
	.st2{clip-path:url(#SVGID_6_);}
	.st3{clip-path:url(#SVGID_8_);}
	.st4{clip-path:url(#SVGID_10_);}
	.st5{fill:#109DD9;}
	.st6{fill:#075DAA;}
	.st7{fill:#E8E8EA;}
</style>
<g>
	<g>
		<g>
			<defs>
				<rect id="SVGID_1_" x="6" y="5" width="98" height="30"/>
			</defs>
			<clipPath id="SVGID_2_">
				<use xlink:href="#SVGID_1_"  style="overflow:visible;"/>
			</clipPath>
			<path class="st0" d="M41.6,16.3h-5.2c-2.4,0-3.6-0.4-3.6-1.3V11c0-0.8,1.1-1.3,3.6-1.3h5.2c2.4,0,3.6,0.4,3.6,1.3V15
				C45.1,15.9,44,16.3,41.6,16.3 M41.6,18.2c4.3,0,6.5-1.1,6.5-3.3v-3.8c0-2.3-2.2-3.3-6.5-3.3h-5.2c-4.3,0-6.5,1.1-6.5,3.3v3.8
				c0,2.3,2.2,3.3,6.5,3.3H41.6z"/>
		</g>
		<g>
			<defs>
				<rect id="SVGID_3_" x="6" y="5" width="98" height="30"/>
			</defs>
			<clipPath id="SVGID_4_">
				<use xlink:href="#SVGID_3_"  style="overflow:visible;"/>
			</clipPath>
			<path class="st1" d="M97.5,16.3h-5.2c-2.4,0-3.6-0.4-3.6-1.3V11c0-0.8,1.1-1.3,3.6-1.3h5.2c2.4,0,3.6,0.4,3.6,1.3V15
				C101.1,15.9,99.9,16.3,97.5,16.3 M97.5,18.2c4.3,0,6.5-1.1,6.5-3.3v-3.8c0-2.3-2.2-3.3-6.5-3.3h-5.2c-4.3,0-6.5,1.1-6.5,3.3v3.8
				c0,2.3,2.2,3.3,6.5,3.3H97.5z"/>
		</g>
		<g>
			<defs>
				<rect id="SVGID_5_" x="6" y="5" width="98" height="30"/>
			</defs>
			<clipPath id="SVGID_6_">
				<use xlink:href="#SVGID_5_"  style="overflow:visible;"/>
			</clipPath>
			<path class="st2" d="M27,14.9v-2.7c0-0.5-0.4-0.8-1.1-0.8h-6.4c-0.6,0-1,0.5-1,1s0.5,1,1,1h4.3v1.4c0,0.4-0.5,0.9-1.5,1
				c-0.8,0.3-1.4,0.3-2,0.3h-7c-2.8,0-4.2-0.5-4.2-1.4V8.3C9,7.4,10.7,7,14,7h1.9c0.8,0,1.1-0.4,1.1-1c0.1-0.6-0.3-1-1-1h-2.8
				c-1.7,0-3.2,0.1-4.6,0.6C7,6.1,6,7,6,8.3v6.6c0,1.3,0.9,2.2,2.5,2.7c1.3,0.4,2.8,0.6,4.7,0.6h7c1.7,0,3.2-0.3,4.3-0.6
				C26.1,16.9,27,16.1,27,14.9"/>
		</g>
		<g>
			<defs>
				<rect id="SVGID_7_" x="6" y="5" width="98" height="30"/>
			</defs>
			<clipPath id="SVGID_8_">
				<use xlink:href="#SVGID_7_"  style="overflow:visible;"/>
			</clipPath>
			<path class="st3" d="M69.3,10.2c0,1-1.4,1.4-4.1,1.4H54.3V6.9h10.9c2.7,0,4.1,0.3,4.1,1.4V10.2z M69.7,5.5C68.4,5.3,67,5,65.2,5
				H52.1c-0.5,0-0.9,0.4-0.9,0.9v11.6c0,0.6,0.4,0.9,1.1,0.9h0.9c0.8,0,1.1-0.3,1.1-0.9v-3.9h10.9c1.9,0,3.3-0.3,4.6-0.6
				c1.7-0.6,2.5-1.5,2.5-2.9v-2C72.4,6.9,71.5,6.1,69.7,5.5"/>
		</g>
		<g>
			<defs>
				<rect id="SVGID_9_" x="6" y="5" width="98" height="30"/>
			</defs>
			<clipPath id="SVGID_10_">
				<use xlink:href="#SVGID_9_"  style="overflow:visible;"/>
			</clipPath>
			<path class="st4" d="M82.6,7.8c-2.7,0-3.8,0-5.5,0.6c-1.5,0.6-2.2,1.7-2.2,2.7v6.4c0,0.5,0.4,0.9,1,0.9h0.9c0.6,0,1-0.3,1-0.9
				v-6.4c0-0.9,1.1-1.3,3.4-1.3h1.3c0.8,0,1.1-0.4,1.1-1C83.7,8.2,83.3,7.8,82.6,7.8"/>
		</g>
	</g>
	<rect x="6" y="21.5" class="st5" width="21.2" height="13.5"/>
	<rect x="31.5" y="21.5" class="st5" width="21.2" height="13.5"/>
	<rect x="57.1" y="21.5" class="st6" width="21.2" height="13.5"/>
	<rect x="82.6" y="21.5" class="st7" width="21.2" height="13.5"/>
</g>
</svg>
