<?xml version="1.0" encoding="utf-8"?>
<!-- Generator: Adobe Illustrator 22.0.1, SVG Export Plug-In . SVG Version: 6.00 Build 0)  -->
<svg version="1.1"
	 id="svg12494" xmlns:cc="http://creativecommons.org/ns#" xmlns:dc="http://purl.org/dc/elements/1.1/" xmlns:rdf="http://www.w3.org/1999/02/22-rdf-syntax-ns#" xmlns:svg="http://www.w3.org/2000/svg"
	 xmlns="http://www.w3.org/2000/svg" xmlns:xlink="http://www.w3.org/1999/xlink" x="0px" y="0px" viewBox="0 0 65 40"
	 style="enable-background:new 0 0 65 40;" xml:space="preserve">
<style type="text/css">
	.st0{fill:#E21836;}
</style>
<g id="g12169">
	<g>
		<g id="g12175" transform="translate(55.36,702.6114)">
			<path id="path12177" class="st0" d="M-50.2-667.8h1.2v-2.4c0-0.4,0-1,0.2-1.3c0.2-0.3,0.6-0.5,0.8-0.5c1,0,1,1.2,1,1.6v2.5h1.2
				v-2.8c0-0.4,0-1.3-0.5-1.8c-0.4-0.5-1.1-0.7-1.5-0.7c-0.8,0-1.2,0.4-1.4,0.6v-0.4h-1.1V-667.8"/>
		</g>
		<g id="g12179" transform="translate(73.5474,706.2231)">
			<path id="path12181" class="st0" d="M-58.3-673.4c0-0.2,0.1-0.4,0.1-0.6c0-1.3-1-2.7-2.6-2.7c-1.6,0-2.7,1.3-2.7,2.8
				c0,1.5,1.2,2.7,2.7,2.7c1.2,0,2.2-0.9,2.5-1.8h-1.3c-0.2,0.4-0.6,0.7-1.2,0.7c-0.9,0-1.4-0.7-1.4-1.1H-58.3z M-62.3-674.4
				c0.2-1,1-1.2,1.4-1.2c0.6,0,1.2,0.4,1.4,1.2H-62.3"/>
		</g>
		<g id="g12183" transform="translate(76.5066,702.6114)">
			<path id="path12185" class="st0" d="M-59.6-667.8h0.8l1-3.3h0l1,3.3h0.8l1.9-5.1h-1.3l-0.9,3.1h0l-0.8-3.1h-1l-0.8,3.1h0
				l-0.9-3.1h-1.3L-59.6-667.8z"/>
		</g>
		<g id="g12187" transform="translate(90.3468,702.6114)">
			<path id="path12189" class="st0" d="M-65.7-667.8h1.1v-0.6c0.3,0.3,0.7,0.8,1.7,0.8c1.9,0,2.5-1.7,2.5-2.8c0-1.4-1-2.7-2.6-2.7
				c-0.6,0-1.2,0.2-1.6,0.6v-2.2h-1.2V-667.8z M-64.6-670.4c0-0.7,0.6-1.5,1.5-1.5c0.8,0,1.5,0.6,1.5,1.6c0,1-0.7,1.6-1.5,1.6
				C-63.8-668.7-64.6-669.3-64.6-670.4"/>
		</g>
		<g id="g12191" transform="translate(110.3256,711.808)">
			<path id="path12193" class="st0" d="M-74.6-682.1h-1.1v0.6h0c0-0.1-0.7-0.8-1.7-0.8c-1.4,0-2.6,1.1-2.6,2.7
				c0,1.7,1.2,2.8,2.5,2.8c0.6,0,1.4-0.3,1.8-0.8v0.6h1.1V-682.1z M-75.7-679.5c0,1-0.6,1.6-1.5,1.6c-0.9,0-1.5-0.7-1.5-1.6
				c0-0.8,0.5-1.6,1.5-1.6C-76.5-681.1-75.7-680.6-75.7-679.5"/>
		</g>
		<path id="path12195" class="st0" d="M37.6,28h-1.2v6.8h1.2V28z"/>
		<g id="g12197" transform="translate(124.0712,711.808)">
			<path id="path12199" class="st0" d="M-80.7-682.1h-1.1v0.6h0c0-0.1-0.7-0.8-1.7-0.8c-1.4,0-2.6,1.1-2.6,2.7
				c0,1.7,1.2,2.8,2.5,2.8c0.6,0,1.4-0.3,1.8-0.8v0.6h1.1V-682.1z M-81.8-679.5c0,1-0.6,1.6-1.5,1.6c-0.9,0-1.5-0.7-1.5-1.6
				c0-0.8,0.5-1.6,1.5-1.6C-82.6-681.1-81.8-680.6-81.8-679.5"/>
		</g>
		<g id="g12201" transform="translate(125.2441,702.6114)">
			<path id="path12203" class="st0" d="M-81.2-667.8h1.2v-2.4c0-0.4,0-1,0.2-1.3c0.2-0.3,0.6-0.5,0.8-0.5c1,0,1,1.2,1,1.6v2.5h1.2
				v-2.8c0-0.4,0-1.3-0.5-1.8c-0.4-0.5-1.1-0.7-1.5-0.7c-0.8,0-1.2,0.4-1.4,0.6v-0.4h-1.1V-667.8"/>
		</g>
		<g id="g12205" transform="translate(141.2422,705.6097)">
			<path id="path12207" class="st0" d="M-88.3-672.4c-0.3,0.5-0.7,0.7-1.1,0.7c-0.9,0-1.5-0.7-1.5-1.6c0-1.1,0.7-1.6,1.5-1.6
				c0.8,0,1,0.5,1.2,0.7h1.4c-0.5-1.6-1.9-1.9-2.6-1.9c-1.4,0-2.7,1.1-2.7,2.7c0,1.7,1.4,2.8,2.7,2.8c1.2,0,2.1-0.7,2.6-1.8H-88.3"
				/>
		</g>
		<g id="g12209" transform="translate(153.5302,706.2231)">
			<path id="path12211" class="st0" d="M-93.7-673.4c0-0.2,0.1-0.4,0.1-0.6c0-1.3-1-2.7-2.6-2.7c-1.6,0-2.7,1.3-2.7,2.8
				c0,1.5,1.2,2.7,2.7,2.7c1.2,0,2.2-0.9,2.5-1.8h-1.3c-0.2,0.4-0.6,0.7-1.2,0.7c-0.9,0-1.4-0.7-1.4-1.1H-93.7z M-97.7-674.4
				c0.2-1,1-1.2,1.4-1.2c0.6,0,1.2,0.4,1.4,1.2H-97.7"/>
		</g>
	</g>
	<g id="g12213" transform="translate(92.8631,733.0946)">
		<path id="path12215" class="st0" d="M-66.8-715.2l-1.6,2.8l-9.1-0.5l0.9-1.6L-66.8-715.2z M-60.3-724.3l0.8,3.1l-12.9-0.8l0.9-1.6
			L-60.3-724.3z M-68.8-728.1l7.5,0l0.6,2.1l-9-0.6C-69.7-726.5-68.8-728.1-68.8-728.1z M-69.5-710.6l-1.3,2.3l-9.4,0l0.9-1.6
			C-79.3-710-69.5-710.6-69.5-710.6z M-53-716.7l-2.3,3.9h2.2c1,0,2.8-0.5,3.3-1.9c0.5-1.3-0.4-2-1.1-2
			C-50.9-716.7-53-716.7-53-716.7z M-50.9-720.5l1.9,0c1.3,0,2.6-0.6,3-1.7c0.4-1.1-0.2-2-0.9-2l-1.8,0
			C-48.7-724.2-50.9-720.5-50.9-720.5z M-59.4-721.1l1.9-3.3l6.4-0.4l0.2-0.4l-6-0.4l1.4-2.4l11.1,0c3.4,0,5.9,1.2,4.9,4.8
			c-0.3,1.1-1.7,3.8-5.7,5c0.9,0.1,3,1.1,2.6,3.5c-0.7,4.4-6.3,6.4-9.5,6.4l-13.1,0l-0.6-2.5l6.8-0.5l0.2-0.4l-7.4-0.5l-0.8-3
			l10.6-0.6l0.2-0.4l-19-1.2l0.9-1.6l20.4-1.3l0.2-0.4L-59.4-721.1"/>
	</g>
</g>
</svg>
