<?xml version="1.0" encoding="utf-8"?>
<!-- Generator: Adobe Illustrator 22.0.1, SVG Export Plug-In . SVG Version: 6.00 Build 0)  -->
<svg version="1.1" id="Capa_1" xmlns="http://www.w3.org/2000/svg" xmlns:xlink="http://www.w3.org/1999/xlink" x="0px" y="0px"
	 viewBox="0 0 180 40" style="enable-background:new 0 0 180 40;" xml:space="preserve">
<style type="text/css">
	.st0{fill:#66276A;}
	.st1{fill:#92911A;}
</style>
<g>
	<path class="st0" d="M5.9,34.3V33L8,33c0.3,0,0.6-0.1,0.7-0.2c0.2-0.1,0.3-0.2,0.4-0.4c0.2-0.3,0.3-0.9,0.3-1.6
		c0-0.2,0-2.4,0.1-6.6v-2.7c0-1.2,0-2.6-0.1-4c0-0.9-0.1-1.4-0.2-1.6c-0.1-0.2-0.3-0.3-0.5-0.4c-0.2-0.1-1.2-0.1-2.9-0.1v-1.3
		c3-0.4,5.1-1,6.5-1.7c0.3-0.1,0.5-0.2,0.6-0.2c0.1,0,0.2,0,0.2,0.1c0.1,0.1,0.1,0.2,0.1,0.3c0,0.1,0,0.2,0,0.4
		c0,0.6-0.1,1.7-0.1,3.5l4.1-3.7c1.2-0.5,2.3-0.7,3.4-0.7c1.2,0,2.3,0.3,3.4,0.8c1.1,0.5,1.9,1.1,2.4,1.9c0.5,0.8,0.9,1.7,1.1,2.9
		c0.1,0.7,0.2,2.6,0.2,5.8v4.1c0,2,0.1,3.4,0.2,4.1c0.1,0.5,0.2,0.8,0.3,1c0.2,0.2,0.4,0.3,0.7,0.3l2.4,0.1v1.3
		c-1.4-0.1-2.6-0.2-3.6-0.2c-0.8,0-2.2,0.1-4.1,0.2c0.2-3.8,0.3-6.2,0.3-7.2v-3.9c0-2.4-0.1-4-0.3-4.7c-0.3-1-0.8-1.9-1.7-2.5
		c-0.9-0.6-2-0.9-3.2-0.9c-1.1,0-2.1,0.3-3,0.8c-0.9,0.5-1.6,1.2-2,1.9c-0.4,0.7-0.6,1.9-0.6,3.6v2.8c0.1,4,0.1,6.1,0.1,6.5
		c0,0.8,0.1,1.3,0.3,1.7c0.1,0.1,0.2,0.3,0.3,0.4c0.1,0.1,0.3,0.2,0.6,0.2c0.1,0,0.9,0,2.4,0.1v1.3c-1.8-0.1-3.4-0.2-4.9-0.2
		C10.7,34.2,8.7,34.2,5.9,34.3"/>
	<path class="st0" d="M37.3,22c0,1.9,0.3,3.8,0.9,5.8c0.6,2,1.5,3.4,2.6,4.3c1.1,0.9,2.4,1.3,3.7,1.3c1.7,0,3.1-0.7,4.3-2.1
		c1.1-1.4,1.7-3.6,1.7-6.5c0-2.4-0.3-4.6-1-6.3c-0.7-1.8-1.6-3-2.6-3.8c-1.1-0.7-2.2-1.1-3.5-1.1c-1.8,0-3.3,0.7-4.4,2
		C37.8,17,37.3,19.1,37.3,22 M33.1,23.7c0-3.4,1-6.2,3.1-8.4c2.1-2.2,4.8-3.3,8.1-3.3c3.1,0,5.6,1,7.5,3c1.9,2,2.9,4.6,2.9,7.9
		c0,2.2-0.5,4.3-1.5,6.1c-1,1.9-2.4,3.3-4.2,4.4c-1.8,1.1-3.8,1.6-6,1.6c-1.7,0-3.1-0.3-4.3-0.9c-1.2-0.6-2.1-1.4-2.9-2.3
		c-0.7-0.9-1.3-1.8-1.7-2.8C33.4,27.4,33.1,25.6,33.1,23.7"/>
	<path class="st0" d="M58.3,27.4h1.3c0,0.9,0.1,1.6,0.1,2.1c0.1,0.5,0.2,1,0.4,1.5c0.2,0.5,0.4,0.9,0.8,1.3c0.4,0.3,0.8,0.6,1.2,0.8
		c0.4,0.2,0.9,0.3,1.3,0.4c0.5,0.1,1.1,0.1,2,0.1c1.5,0,2.7-0.4,3.7-1.2c1-0.8,1.4-2,1.4-3.4c0-0.6-0.1-1.2-0.5-1.7
		c-0.3-0.5-0.7-0.9-1.3-1.2c-0.6-0.3-1.8-0.6-3.7-1.1c-1.9-0.4-3.1-0.8-3.6-1c-0.8-0.3-1.5-0.7-2-1.2c-0.5-0.5-0.9-1-1.2-1.8
		c-0.3-0.7-0.4-1.5-0.4-2.3c0-1.2,0.3-2.3,0.9-3.4c0.6-1,1.6-1.9,2.9-2.5c1.3-0.6,2.7-1,4.3-1c0.9,0,2,0.1,3.2,0.4
		c1.2,0.3,2.2,0.6,3,1c-0.1,1.7-0.2,3.4-0.2,5.2h-1.3c-0.1-1.1-0.2-1.9-0.2-2.2c-0.1-0.4-0.2-0.7-0.4-0.9c-0.2-0.3-0.4-0.6-0.8-0.9
		c-0.4-0.3-0.9-0.6-1.5-0.8c-0.6-0.2-1.4-0.4-2.3-0.4c-1.3,0-2.3,0.4-3.1,1.2c-0.8,0.8-1.2,1.7-1.2,2.8c0,0.6,0.1,1.1,0.3,1.5
		c0.2,0.4,0.5,0.8,0.9,1c0.4,0.3,0.9,0.5,1.6,0.7l3.7,0.9c1.9,0.5,3.1,0.9,3.8,1.3c0.7,0.4,1.3,0.9,1.7,1.6c0.4,0.7,0.6,1.6,0.6,2.7
		c0,2.1-0.8,3.9-2.5,5.4c-1.6,1.5-3.8,2.3-6.6,2.3c-1.3,0-3-0.2-5.1-0.6c-1.2-0.2-1.8-0.4-1.9-0.5c-0.1,0-0.1-0.1-0.1-0.2
		s0-0.2,0-0.4c0.1-0.7,0.2-1.3,0.3-1.9C58.2,30.7,58.3,29.4,58.3,27.4"/>
	<path class="st0" d="M76.4,16.3v-1c1.4-0.6,2.5-1.1,3.4-1.6v-7c1.5-0.6,2.8-1.1,3.7-1.8l0.5,0.5c-0.2,1.3-0.3,4.1-0.5,8.4
		c1.2,0,1.9,0,2.1,0c0.1,0,0.9,0,2.3,0c0.8,0,1.3,0,1.7-0.1l0.2,0.2L89.4,16c-0.9,0-1.8,0-2.6,0c-0.8,0-1.9,0-3.2,0l-0.1,9.4
		c0,2.3,0,3.6,0,4.1c0.1,0.4,0.2,0.8,0.4,1.2c0.2,0.3,0.5,0.6,0.8,0.8c0.3,0.2,0.9,0.4,1.7,0.5c0.6,0,1.1,0,1.5-0.1
		c0.4-0.1,0.8-0.2,1.4-0.4l0.3,0.9c-0.7,0.6-1.4,1.2-2,1.8c-0.6,0.2-1.1,0.4-1.6,0.4c-0.5,0.1-1,0.1-1.7,0.1c-0.8,0-1.4-0.1-1.9-0.3
		c-0.5-0.2-0.9-0.4-1.3-0.8c-0.4-0.3-0.7-0.8-1-1.3c-0.3-0.5-0.4-1.3-0.5-2.4c0-1,0-2.2,0.1-3.4c0-0.2,0-0.5,0-0.8v-9.5h-0.9
		C78.2,16.2,77.4,16.2,76.4,16.3"/>
	<path class="st1" d="M91.2,34.3V33c1.7,0,2.6-0.1,2.7-0.1c0.2,0,0.4-0.1,0.6-0.2c0.1-0.1,0.2-0.2,0.3-0.4c0.1-0.4,0.2-0.9,0.3-1.7
		c0.1-4.1,0.1-6.2,0.1-6.4v-2.7c0-1.2,0-2.6-0.1-4c0-0.9-0.1-1.4-0.2-1.6c-0.1-0.2-0.3-0.3-0.5-0.4c-0.2-0.1-1.2-0.1-2.9-0.1v-1.3
		c3-0.4,5.1-1,6.5-1.7c0.3-0.1,0.5-0.2,0.6-0.2c0.1,0,0.2,0,0.2,0.1c0.1,0.1,0.1,0.2,0.1,0.3c0,0.1,0,0.2,0,0.4
		c-0.1,0.9-0.1,2.4-0.1,4.4c0.7-0.8,1.3-1.6,1.8-2.4c0.6-0.8,1-1.3,1.2-1.5c0.4-0.4,1-0.7,1.5-1c0.6-0.2,1.2-0.4,1.8-0.4
		c0.6,0,1.2,0.1,1.8,0.4l0.1,0.3c-0.2,2-0.3,3.8-0.4,5.4h-1c-0.3-0.7-0.7-1.3-1.2-1.6c-0.4-0.3-1-0.5-1.7-0.5
		c-1.1,0-2.1,0.5-2.9,1.5c-0.8,1-1.2,2.4-1.2,4.4v2.4c0,1,0,2.9,0.1,5.5c0,1,0,1.6,0.1,1.8c0.1,0.3,0.1,0.4,0.2,0.6
		c0.1,0.1,0.3,0.2,0.5,0.3c0.4,0.1,1.6,0.3,3.6,0.4v1.3c-2.6-0.1-4.8-0.2-6.6-0.2C94.8,34.2,93,34.2,91.2,34.3"/>
	<path class="st1" d="M133.8,33v1.3c-1.9-0.1-3.4-0.2-4.4-0.2c-1.1,0-2.2,0.1-3.3,0.2c0.1-1.2,0.2-2.6,0.2-4.2
		c-0.9,0.7-1.9,1.7-3.2,3c-0.3,0.3-0.6,0.5-0.8,0.6c-0.6,0.4-1.3,0.6-1.9,0.8c-0.6,0.2-1.4,0.2-2.3,0.2c-1.2,0-2.2-0.2-3-0.5
		c-0.8-0.3-1.5-0.9-2.1-1.5c-0.4-0.5-0.8-1.2-1-2c-0.2-0.8-0.3-1.8-0.3-2.9c0-0.5,0-1,0.1-1.5c0-0.5,0.1-0.9,0.1-1.4V21
		c0-0.4,0-1.4-0.1-3c0-1-0.1-1.7-0.2-2c-0.1-0.2-0.2-0.3-0.3-0.4c-0.2-0.2-0.6-0.2-1.2-0.2c-0.8,0-1.4,0-1.9,0v-1.3
		c3.2-0.4,5.5-1,6.9-1.8c0.2-0.1,0.4-0.2,0.6-0.2c0.1,0,0.2,0,0.3,0.1c0.1,0.1,0.1,0.2,0.1,0.3c0,0.1,0,0.3,0,0.5
		c-0.1,0.5-0.1,1.4-0.2,2.8c-0.1,2.6-0.1,4.3-0.1,5.2v4.5c0,1.9,0.1,3.2,0.4,4c0.2,0.8,0.7,1.4,1.4,1.8c0.7,0.5,1.6,0.7,2.6,0.7
		c0.7,0,1.4-0.1,2.1-0.4c0.7-0.3,1.3-0.6,1.9-1.1c0.4-0.4,0.8-0.8,1.3-1.4c0.3-0.4,0.5-0.8,0.6-1c0.1-0.2,0.2-0.6,0.2-1
		c0.1-1.3,0.1-2.7,0.1-4V21c0-0.4,0-1.4-0.1-3c0-1-0.1-1.7-0.2-2c-0.1-0.2-0.2-0.3-0.3-0.4c-0.2-0.2-0.6-0.2-1.2-0.2
		c-0.8,0-1.4,0-1.9,0v-1.3c3.2-0.4,5.4-1,6.9-1.8c0.2-0.1,0.4-0.2,0.5-0.2c0.1,0,0.2,0,0.3,0.1c0.1,0.1,0.1,0.2,0.1,0.3
		c0,0.1,0,0.3,0,0.5c0,0.5-0.1,1.5-0.1,2.9c-0.1,2.5-0.1,4.2-0.1,5.1v3.2l0,3.2c0.1,1.9,0.1,3,0.1,3.3c0,0.8,0.1,1.3,0.2,1.7
		c0.1,0.1,0.2,0.3,0.3,0.4c0.1,0.1,0.3,0.2,0.5,0.2C131.4,32.9,132.2,33,133.8,33"/>
	<path class="st1" d="M135.9,34.3V33l2.1,0c0.3,0,0.6-0.1,0.7-0.2c0.2-0.1,0.3-0.2,0.4-0.4c0.2-0.3,0.3-0.9,0.3-1.6
		c0-0.2,0-2.4,0.1-6.6v-2.7c0-1.2,0-2.6-0.1-4c0-0.9-0.1-1.4-0.2-1.6c-0.1-0.2-0.3-0.3-0.5-0.4c-0.2-0.1-1.2-0.1-2.9-0.1v-1.3
		c3-0.4,5.1-1,6.5-1.7c0.3-0.1,0.5-0.2,0.6-0.2c0.1,0,0.2,0,0.2,0.1c0.1,0.1,0.1,0.2,0.1,0.3c0,0.1,0,0.2,0,0.4
		c-0.1,0.7-0.1,1.8-0.1,3.3l2.9-2.8c0.4-0.3,0.6-0.5,0.7-0.6c0.3-0.2,0.8-0.4,1.5-0.6c0.6-0.2,1.3-0.3,2-0.3c1.4,0,2.7,0.4,3.8,1.1
		c1.1,0.7,1.9,1.8,2.5,3.2l2.4-2.3c0.5-0.5,0.9-0.8,1.1-1c0.4-0.2,0.9-0.4,1.6-0.6c0.7-0.2,1.4-0.3,2.1-0.3c1.7,0,3.1,0.5,4.2,1.4
		c1.1,0.9,1.9,2,2.2,3.2c0.2,0.8,0.3,2.5,0.3,5.1v2.4l0.1,3.2c0,1.9,0.1,3,0.1,3.3c0,0.8,0.1,1.3,0.3,1.7c0.1,0.1,0.2,0.3,0.3,0.4
		c0.1,0.1,0.3,0.2,0.5,0.2c0.1,0,0.9,0,2.4,0.1v1.3c-1.9-0.1-3.1-0.2-3.8-0.2c-0.6,0-1.9,0.1-3.9,0.2l0.2-6.4l0.1-2.5v-2
		c0-2.6-0.1-4.3-0.4-5.3c-0.2-0.9-0.8-1.7-1.6-2.3c-0.8-0.6-1.7-0.9-2.8-0.9c-1.2,0-2.3,0.4-3.3,1.1c-0.7,0.6-1.2,1.2-1.4,2
		c-0.2,0.8-0.4,2.3-0.4,4.5v1.5l0.1,3.2c0,1.9,0,3,0.1,3.3c0,0.8,0.1,1.3,0.3,1.7c0.1,0.1,0.1,0.3,0.3,0.4c0.1,0.1,0.3,0.2,0.5,0.2
		c0.1,0,0.9,0,2.5,0.1v1.3c-2.2-0.1-3.9-0.2-5.2-0.2c-1.1,0-3,0.1-5.8,0.2V33l2.1,0c0.3,0,0.6-0.1,0.7-0.2c0.2-0.1,0.3-0.2,0.4-0.4
		c0.2-0.3,0.3-0.9,0.3-1.6c0-0.2,0-2.4,0.1-6.6v-1.8c0-2-0.1-3.4-0.4-4.3c-0.3-0.9-0.8-1.6-1.5-2.2c-0.7-0.5-1.6-0.8-2.6-0.8
		c-0.9,0-1.7,0.2-2.5,0.6c-0.8,0.4-1.4,0.9-1.8,1.5c-0.4,0.6-0.7,1.2-0.8,1.9c-0.1,1.1-0.2,2.3-0.2,3.8v1.4c0.1,4,0.1,6.1,0.1,6.5
		c0,0.8,0.1,1.3,0.3,1.7c0.1,0.1,0.1,0.3,0.3,0.4c0.1,0.1,0.3,0.2,0.6,0.2c0.1,0,0.9,0,2.4,0.1v1.3c-2-0.1-3.8-0.2-5.2-0.2
		C140.3,34.2,138.4,34.2,135.9,34.3"/>
</g>
</svg>
