<?xml version="1.0" encoding="utf-8"?>
<!-- Generator: Adobe Illustrator 22.0.1, SVG Export Plug-In . SVG Version: 6.00 Build 0)  -->
<svg version="1.1" id="Capa_1" xmlns="http://www.w3.org/2000/svg" xmlns:xlink="http://www.w3.org/1999/xlink" x="0px" y="0px"
	 viewBox="0 0 115 40" style="enable-background:new 0 0 115 40;" xml:space="preserve">
<style type="text/css">
	.st0{fill:#2B2A29;}
</style>
<g>
	<path class="st0" d="M6.7,10.5c0.8,0.6,1.7,1,2.7,1.2c0.4,0.1,0.9,0.2,1.3,0.4c0.3,0.1,0.5,0.3,0.8,0.5c0.5,0.4,1,0.7,1.4,1.2
		c-0.9,0.8-1.3,2.1-1.4,3.3c-0.1,1.2,0.2,2.5,0.7,3.6c0.5,1.3,1.3,2.6,2.1,3.8c1.1,1.6,2.2,3.3,2.4,5.2c0.1,0.7,0.2,1.4-0.2,2
		c-0.3,0.6-1.2,0.8-1.9,0.5c-0.5-0.3-0.7-0.9-0.8-1.5c0-0.8,0-1.7,0-2.5c-0.8,0-1.7,0-2.5,0c0,1.1-0.1,2.1,0.1,3.2
		c0.1,1,0.6,1.9,1.3,2.5c0.8,0.7,1.8,0.9,2.8,0.9c1.1,0,2.1-0.5,2.8-1.3c0.9-1,1.1-2.3,1.1-3.6c-0.1-1.9-0.9-3.7-1.8-5.3
		c-0.9-1.5-1.9-2.8-2.7-4.3c-0.5-1-0.8-2.2-0.7-3.4c0-0.3,0.1-0.6,0.3-0.8c0.4-0.5,1.2-0.7,1.7-0.3c0.4,0.3,0.6,0.8,0.6,1.3
		c0,0.9,0,1.8,0,2.7c0.8,0,1.7,0,2.5,0c0-0.8,0-1.7,0-2.5c0-0.9-0.2-1.8-0.6-2.5c-0.4-0.8-1.2-1.3-2.1-1.6c-1-0.3-2.2-0.1-3.1,0.4
		c0.2-0.3,0.3-0.6,0.6-0.8c0.7-0.6,1.4-1.1,1.8-2c0.2-0.7,0.2-1.4,0.2-2.1c0-0.4-0.1-0.8-0.3-1.2c0-0.1-0.2-0.2-0.3-0.1
		c-0.6,0.8-1.7,1-2.3,1.7c-0.4,0.5-0.5,1.2-0.6,1.8c0,0.6,0.2,1.2,0.4,1.8c0.1,0.3,0.1,0.6,0.1,0.8c-0.1,0-0.2-0.1-0.2-0.2
		c-0.5-0.5-0.9-1.1-1-1.8c-0.1-0.8-0.1-1.6-0.3-2.4c-0.2-0.8-0.6-1.6-1.1-2.3c-0.4-0.5-1-0.9-1.6-1C7.9,5.6,6.9,5.6,6,5.4
		C5.6,5.4,5.2,5.2,4.8,5H4.7C4.5,5.1,4.5,5.3,4.5,5.4v0.3C4.6,6.9,5,8,5.5,9C5.8,9.6,6.2,10.1,6.7,10.5z"/>
	<path class="st0" d="M22.8,13.4c-0.9,7-1.9,14.1-2.8,21.1c0.8,0,1.7,0,2.5,0c0.2-1.4,0.3-2.7,0.5-4.1c0.8,0,1.6,0,2.4,0
		c0.1,1.4,0.2,2.7,0.4,4.1c0.9,0,1.9,0,2.8,0c-0.9-7-1.9-14.1-2.8-21.1C24.8,13.4,23.8,13.4,22.8,13.4z M23.3,27.8c0.3-3,0.7-6,1-9
		c0.3,3,0.5,6,0.8,9C24.5,27.8,23.9,27.8,23.3,27.8z"/>
	<path class="st0" d="M32.8,31.9c0-6.2,0-12.3,0-18.5c-0.9,0-1.8,0-2.7,0c0,7,0,14.1,0,21.1c2,0,4.1,0,6.1,0c0-0.9,0-1.8,0-2.6
		C35.1,31.9,34,31.9,32.8,31.9z"/>
	<path class="st0" d="M42.9,13.4c-1,0-2,0-3,0c-0.9,7-1.9,14.1-2.8,21.1c0.8,0,1.7,0,2.5,0c0.2-1.4,0.3-2.7,0.5-4.1
		c0.8,0,1.6,0,2.4,0c0.1,1.4,0.3,2.7,0.4,4.1c0.9,0,1.9,0,2.9,0C44.8,27.5,43.9,20.5,42.9,13.4C42.9,13.5,42.9,13.4,42.9,13.4z
		 M40.4,27.8c0.3-3,0.7-6,1-9c0.3,3,0.6,6,0.8,9C41.6,27.8,41,27.8,40.4,27.8z"/>
	<path class="st0" d="M52.6,13.6c-0.8-0.2-1.6-0.2-2.3-0.2c-1.1,0-2.1,0-3.1,0c0,2.7,0,5.5,0,8.2c0,4.3,0,8.6,0,12.9
		c1.4,0,2.8,0,4.2,0c1,0,2.1-0.3,2.8-1c0.8-0.8,1-2,1.1-3.2c0-4.2,0-8.3,0-12.5c0-1-0.2-2-0.7-2.9C54,14.3,53.3,13.8,52.6,13.6z
		 M52.3,30.2c0,0.4,0,0.9-0.3,1.3c-0.2,0.3-0.5,0.4-0.8,0.4c-0.5,0-0.9,0-1.4,0c0-5.3,0-10.6,0-15.9c0.6,0.1,1.2-0.1,1.8,0.1
		c0.6,0.2,0.7,0.9,0.7,1.5C52.3,21.8,52.3,26,52.3,30.2z"/>
	<path class="st0" d="M64.4,13.4c-0.1,0.8-0.3,1.6-0.4,2.5c-0.5,2.8-1,5.6-1.3,8.5c0-0.1-0.1-0.2-0.1-0.3c-0.2-1.6-0.4-3.2-0.7-4.8
		c-0.3-1.9-0.7-3.9-1-5.8c-1.1,0-2.2,0-3.4,0c0,5.2,0,10.5,0,15.7c0.7,0,1.5,0,2.2,0c0-2.6,0-5.3,0-7.9c0-1.2,0-2.4,0-3.6
		c0.5,3.9,1.2,7.7,1.8,11.6c0.6,0,1.3,0,1.9,0c0.4-2.4,0.8-4.8,1.3-7.3c0.3-1.4,0.4-2.9,0.7-4.3c0,3.9,0,7.7,0,11.6
		c0.8,0,1.6,0,2.4,0c0-5.2,0-10.5,0-15.7C66.7,13.4,65.6,13.4,64.4,13.4z"/>
	<path class="st0" d="M71.6,13.4c-0.9,5.2-1.7,10.5-2.6,15.7c0.8,0,1.5,0,2.3,0c0.2-1,0.3-2,0.5-3.1c0.8,0,1.5,0,2.3,0
		c0.1,1,0.3,2,0.4,3.1c0.8,0,1.7,0,2.5,0c-0.9-5.2-1.7-10.5-2.6-15.7C73.4,13.4,72.5,13.4,71.6,13.4z M72,23.9
		c0.2-1.6,0.5-3.3,0.7-4.9c0.1-0.5,0.2-1,0.2-1.5c0.2,1,0.3,2,0.4,3c0.1,1.1,0.3,2.2,0.4,3.4C73.2,23.9,72.6,23.9,72,23.9z"/>
	<path class="st0" d="M85.3,27c0-1.2,0-2.3,0-3.5c0-0.9-0.6-1.7-1.5-2c0.4-0.2,0.7-0.4,1-0.7c0.4-0.5,0.5-1.2,0.5-1.8
		c0-0.9,0-1.7,0-2.6c0-0.8-0.2-1.6-0.8-2.2c-0.6-0.6-1.4-0.8-2.2-0.8c-1.3,0-2.7,0-4,0c0,5.2,0,10.5,0,15.7c0.8,0,1.7,0,2.5,0
		c0-2.2,0-4.4,0-6.6c0.4,0,0.8,0,1.3,0c0.3,0,0.5,0.1,0.7,0.3c0.2,0.2,0.3,0.6,0.3,0.9c0,1,0,2,0,3c0,0.6,0,1.3,0.3,1.9
		c0.2,0.3,0.5,0.6,0.9,0.6c0.5,0,1.1,0,1.6,0c0-0.2,0-0.5,0-0.7C85.4,28,85.3,27.5,85.3,27z M82.8,19.4c0,0.3-0.1,0.6-0.3,0.9
		c-0.2,0.2-0.4,0.2-0.6,0.2c-0.4,0-0.8,0-1.2,0c0-1.7,0-3.3,0-5c0.4,0,0.9,0,1.3,0c0.2,0,0.5,0.1,0.6,0.3c0.2,0.2,0.2,0.5,0.2,0.8
		C82.8,17.5,82.8,18.5,82.8,19.4z"/>
	<path class="st0" d="M94.7,13.4c-0.8,0-1.6,0-2.5,0c-0.9,2.4-1.7,4.9-2.6,7.3c0-2.4,0-4.9,0-7.3c-0.8,0-1.7,0-2.5,0
		c0,5.2,0,10.5,0,15.7c0.8,0,1.7,0,2.5,0c0-1.4,0-2.8,0-4.3c0.3-0.7,0.5-1.5,0.8-2.2c0.6,2.2,1.2,4.3,1.7,6.5c0.9,0,1.7,0,2.6,0
		c-0.8-3-1.7-6-2.6-9C93,17.8,93.9,15.6,94.7,13.4z"/>
	<path class="st0" d="M98.6,26.8c0-1.6,0-3.2,0-4.8c0.9,0,1.7,0,2.6,0c0-0.7,0-1.4,0-2.1c-0.9,0-1.7,0-2.6,0c0-1.4,0-2.9,0-4.3
		c1.3,0,2.5,0,3.8,0c0-0.7,0-1.5,0-2.2c-2.1,0-4.2,0-6.3,0c0,5.2,0,10.5,0,15.7c2.1,0,4.2,0,6.3,0c0-0.8,0-1.5,0-2.3
		C101.1,26.8,99.8,26.8,98.6,26.8z"/>
	<path class="st0" d="M103.2,15.7c0.8,0,1.6,0,2.4,0c0,4.5,0,8.9,0,13.4c0.8,0,1.7,0,2.5,0c0-4.5,0-8.9,0-13.4c0.8,0,1.6,0,2.4,0
		v-2.3c-2.4,0-4.9,0-7.3,0C103.2,14.1,103.2,14.9,103.2,15.7z"/>
	<path class="st0" d="M57.7,33.1c0.4,1.1,1.4,1.8,2.5,1.9h0.4c1.4-0.1,2.7-1.4,2.7-2.8c0.1,0.5,0.2,0.9,0.4,1.4
		c0.5,0.8,1.4,1.4,2.3,1.5h0.4c1.5-0.1,2.8-1.4,2.8-2.9c0,0.5,0.2,1,0.4,1.4c0.5,0.8,1.4,1.4,2.4,1.5h0.4c0.6-0.1,1.3-0.3,1.8-0.8
		c0.6-0.5,0.9-1.2,1-2c0.1,0.8,0.4,1.5,1,2c0.5,0.4,1.1,0.7,1.8,0.8h0.4c0.8-0.1,1.5-0.4,2-1c0.5-0.5,0.7-1.2,0.8-1.8
		c0,0.7,0.3,1.4,0.8,1.9c0.5,0.5,1.2,0.8,1.8,0.9h0.5c1.4-0.1,2.7-1.3,2.7-2.8c0.1,0.5,0.2,0.9,0.4,1.3c0.5,0.8,1.4,1.4,2.4,1.5h0.3
		c0.6,0,1.2-0.2,1.6-0.6c0.7-0.5,1.1-1.3,1.2-2.2c0.1,0.6,0.2,1.1,0.5,1.5c0.5,0.7,1.4,1.2,2.3,1.3H96c0.8-0.1,1.5-0.4,2-1
		c0.4-0.5,0.7-1.1,0.7-1.8c0,0.8,0.4,1.6,1.1,2.1c0.5,0.4,1,0.6,1.6,0.7h0.5c0.9-0.1,1.7-0.5,2.2-1.3c0.3-0.4,0.5-1,0.5-1.5
		c0,1.5,1.3,2.8,2.8,2.8h0.3c0.9,0,1.7-0.5,2.2-1.1c0.4-0.5,0.6-1,0.6-1.6v-1.1c-17.7,0-35.3,0-53,0C57.5,31.8,57.4,32.5,57.7,33.1z
		"/>
</g>
</svg>
