<?xml version="1.0" encoding="utf-8"?>
<!-- Generator: Adobe Illustrator 22.0.1, SVG Export Plug-In . SVG Version: 6.00 Build 0)  -->
<svg version="1.1" id="Capa_1" xmlns="http://www.w3.org/2000/svg" xmlns:xlink="http://www.w3.org/1999/xlink" x="0px" y="0px"
	 viewBox="0 0 175 40" style="enable-background:new 0 0 175 40;" xml:space="preserve">
<style type="text/css">
	.st0{fill:#A94A24;}
</style>
<g>
	<path class="st0" d="M87.6,10.8c1.9,0,3.9,0,5.8,0c0-1.9,0-3.9,0-5.8c-1.9,0-3.9,0-5.8,0C87.5,6.9,87.5,8.9,87.6,10.8z"/>
	<path class="st0" d="M102.7,34.9c1.8,0,3.7,0,5.5,0c0-4.6,0.1-9.3,0-13.9c1.8-0.1,3.5-0.1,5.3,0c0-1.4,0-2.8,0-4.3
		c-1.7,0-3.5,0-5.3,0.1c-0.1-2.8-0.1-5.6,0-8.4c-1.9,0-3.7,0-5.6-0.1c0,2.8,0,5.6,0,8.4c-1.1-0.1-2.1-0.1-3.2-0.1c0,1.4,0,2.8,0,4.3
		c1.1,0,2.1,0,3.2,0C102.7,25.6,102.7,30.3,102.7,34.9z"/>
	<path class="st0" d="M36,20.4c-2.9,4.2-2.8,9.7-2.2,14.6c1.8,0,3.7,0,5.6,0.1c-0.2-1.2-0.4-2.3-0.6-3.4c5.9-0.1,11.9,0,17.9,0
		c0.1-3.9-0.2-8.2-2.6-11.4C50,14.4,39.9,14.4,36,20.4z M38.8,27.6c0.3-1.8,0.5-3.8,1.8-5.2c2.3-2.6,6.8-2.5,8.9,0.1
		c1.2,1.4,1.5,3.3,1.8,5.1C47.1,27.7,43,27.6,38.8,27.6z"/>
	<path class="st0" d="M69.3,19.1c0.1-1,0.1-1.9,0.1-2.9c-1.8,0.1-3.6,0.1-5.4,0.1c0,6.2,0.1,12.4-0.1,18.7c1.8,0,3.6,0,5.4,0.1
		c0.1-2.9-0.1-5.9,0.1-8.8c0.1-2.9,2.6-5.4,5.5-5.4c1.6,0,2.8,0.9,4.1,1.8c1.4-1.4,2.8-2.8,4.2-4.2C79.4,14.7,72.7,15.2,69.3,19.1z"
		/>
	<path class="st0" d="M140.8,34.9c-0.1-3.8,0.2-7.7-0.2-11.5c-0.2-2.9-2.2-5.5-4.9-6.5c-3.2-1.2-6.8-1.3-10.2-0.7
		c-2.4,0.4-4.3,1.9-5.9,3.5c1.2,1.1,2.4,2.3,3.6,3.4c2.4-2.9,6.9-3.3,10.2-1.7c2.2,1.2,2,4,2.1,6.2c-4.1,0.2-8.3-0.5-12.2,0.9
		c-2.7,0.9-4.3,3.7-4.8,6.4c1.8,0,3.5,0,5.3,0c0.6-1.3,1.3-2.8,2.8-3.1c2.9-0.6,5.9-0.2,8.8-0.3c-0.1,1.1-0.1,2.3-0.1,3.4
		C137.1,34.9,138.9,34.9,140.8,34.9z"/>
	<path class="st0" d="M150.1,29.9c3.3,2.6,7.8,1.8,11.7,2.5c1.3,0.2,1.8,1.5,2.4,2.5c1.8,0,3.5,0,5.3,0c-0.3-2.2-0.9-4.6-2.9-5.8
		c-3.4-2.3-7.7-1.4-11.4-2.4c-1.2-0.3-2.1-1.5-2.1-2.7c-0.1-1.7,1.5-3.1,3.1-3.4c3-0.5,6.2,0.1,8.8,1.8c1.2-1.2,2.3-2.4,3.5-3.6
		c-4.6-3.3-11.1-4-16.2-1.7C147.4,19.3,146.2,26.5,150.1,29.9z"/>
	<path class="st0" d="M5.4,16.3c2.3,6.2,4.6,12.5,6.8,18.7c1.8,0,3.6,0,5.3,0c-2.1-6.3-4.2-12.5-6.3-18.7
		C9.3,16.3,7.4,16.3,5.4,16.3z"/>
	<path class="st0" d="M24.2,16.2c-2.2,6.2-4.2,12.5-6.4,18.7c1.8,0,3.5,0,5.3,0c2.3-6.2,4.6-12.5,6.9-18.7
		C28.1,16.3,26.2,16.3,24.2,16.2z"/>
	<path class="st0" d="M87.7,16.3c0,6.3,0,12.5,0,18.7c1.8,0,3.7,0,5.5,0c-0.1-6.2,0-12.4,0-18.6C91.4,16.3,89.6,16.3,87.7,16.3z"/>
</g>
</svg>
