<?xml version="1.0" encoding="utf-8"?>
<!-- Generator: Adobe Illustrator 22.0.1, SVG Export Plug-In . SVG Version: 6.00 Build 0)  -->
<svg version="1.1" id="choose" xmlns="http://www.w3.org/2000/svg" xmlns:xlink="http://www.w3.org/1999/xlink" x="0px" y="0px"
	 viewBox="0 0 150 150" style="enable-background:new 0 0 150 150;" xml:space="preserve">
<style type="text/css">
	.st0{fill:none;stroke:#05C88C;stroke-width:2;stroke-linecap:round;stroke-linejoin:round;stroke-miterlimit:10;}
</style>
<g>
	<path class="st0" d="M58.1,147.5c-20.4-7.7-32.3-41.1-32.3-41.1c-2-3.3-1.4-7.8,1.3-10.2s6.4-1.7,8.4,1.6l10,15.2l-9.9-53.5
		c-0.7-3.9,1.3-7.9,4.5-8.8c3.2-0.9,6.5,1.6,7.2,5.5l8.1,43.8l-3.9-21c-0.7-3.9,1.3-7.9,4.5-8.8s6.5,1.6,7.2,5.5l4,21.9L64,80.1
		c-0.7-3.9,1.3-7.9,4.5-8.8c3.2-0.9,6.5,1.6,7.2,5.5l3.9,20.7l-3-15.9c-0.7-3.9,1.3-7.9,4.5-8.8s6.5,1.6,7.2,5.5
		c7.4,40,5.3,38.2,1.4,60.1"/>
	<circle class="st0" cx="19.8" cy="19.8" r="17.3"/>
	<path class="st0" d="M88.4,37.1H58.9c-1.4,0-2.6-1.2-2.6-2.6V5.1c0-1.4,1.2-2.6,2.6-2.6h29.4c1.4,0,2.6,1.2,2.6,2.6v29.4
		C90.9,35.9,89.8,37.1,88.4,37.1z"/>
	<polygon class="st0" points="127.5,2.5 107.6,37.1 147.5,37.1 	"/>
</g>
</svg>
