<?xml version="1.0" encoding="utf-8"?>
<!-- Generator: Adobe Illustrator 22.0.1, SVG Export Plug-In . SVG Version: 6.00 Build 0)  -->
<svg version="1.1" id="cook" xmlns="http://www.w3.org/2000/svg" xmlns:xlink="http://www.w3.org/1999/xlink" x="0px" y="0px"
	 viewBox="0 0 150 150" style="enable-background:new 0 0 150 150;" xml:space="preserve">
<style type="text/css">
	.st0{fill:none;stroke:#05C88C;stroke-width:2;stroke-linecap:round;stroke-linejoin:round;stroke-miterlimit:10;}
	.st1{fill:none;stroke:#05C88C;stroke-width:2;stroke-linecap:round;stroke-miterlimit:10;}
	.st2{fill:none;stroke:#05C88C;stroke-linecap:round;stroke-linejoin:round;stroke-miterlimit:10;}
</style>
<g>
	<g>
		<path class="st0" d="M100.6,134.3c-0.4-0.9,0.4-2.6,0.4-3.5c0.1-1.1-0.3-3.1-0.8-3.6c-3.7-4.1,0.6-12.9,0.8-14.2
			c0.2-1.7,1.4-2.8-0.8-2.7c-1.8,0,4.6-6.2-0.9-6.9c1.5,2.7-3.1,3.2-4.2,1.1c-1.7-3.1,1.6-6.2,5.9-3.5c-0.4-5.3-5.3-4.3-6.1-4
			c0.3-0.6,0.2-1.3,0.2-1.7c-0.4,0.3-0.8,0.6-1.6,0.9c-3.9,1.9-4.4,7.2-1.9,10.3c0.6,0.7,5.5,12.2,0.5,21.3
			c-0.6-4.7-4.1-9.3-3.3-13.4c-5.3,2-0.4,9.2-2.2,13.6c-0.8-1.1-3.3-2.9-3.1-6.7c-0.8,0.2-1.4,1.1-1.7,2.5c-1.1-0.3,0.8-7.1-3.4-7.8
			c0.3,1-0.5,4.2-0.6,5.2c-1.4-1.2-4.4-4.2-5.3-8.2c-3.1,6.5,4.1,10.2,2.1,11.7c-0.5,0.4-3.2,1.3-3.4-1.3c-2.7,2,0.3,4.6,1.9,6.9
			c1.3,1.9,1.5,4.2-1.5,4.2c-0.7,0-4.3,0.4-3.6-5.2c-0.8,0.1-1.7,1.2-2.2,1.9c0.2-3.4-1-5.3-2.9-5.5c2.8,10.8-8.4,3.3-3.6-6.8
			c-2.1-0.2-3.3,4.3-5.1,6.1c0.3-1.7-2.4-5.4-5.9-4.3c2.4,1.5,0,14.9-7.6,14.9c1.2-2.5,5.9-8.1,1-9.7c1.4,1.6-1.8,3.2-3.4,3.4
			c-0.5,0.1-1.9-0.8-2.1-3.7c-0.1-1.8,0-4.2,2.2-7c-6.7,2.7-6,10.3-4.1,14c1.1,2.2-1.7,4.1-4.3,2.2c-0.2-0.2-2.9-2.9,1-2.5
			c-1-3.3-3.5-2.2-4.2-0.2c-0.4-1.2-3-4.2-0.2-6.6c-5.4-0.9-2.4,10.3-6.1,10.6c0.4-1-0.3-5-4.6-5c5.5,4.9-5.4,5.3-8,7.6h92.9
			C100.7,137.8,101.8,136.7,100.6,134.3z"/>
		<g>
			<path class="st1" d="M50.4,94.2L17,103.5"/>
			<path class="st0" d="M142.9,61.7L97.4,74.3L142.9,61.7c3.3-0.9,5.3-4.4,4.4-7.8c-0.9-3.3-4.4-5.3-7.8-4.4L97.8,61.2
				c-3.2,13,6.5,26.7-10.8,31.5c-5.6,1.6-49.4,13.8-55,15.3c-8.1,2.3-12.1-0.2-15.1-4.5l0,0l0,0c-4.2-5.9-6.3-15.3-14.5-20.1
				l97.2-27.1c-0.9,1.6-1.5,3.2-1.9,4.8l41.7-11.6c3.3-0.9,6.8,1,7.8,4.4C148.2,57.2,146.2,60.7,142.9,61.7z"/>
			<path class="st0" d="M13.2,96.5l25.9-7.2L13.2,96.5z"/>
		</g>
		<g>
			<path class="st0" d="M48,11.8c19.4,18-11.2,21.3,8.6,38.1"/>
			<path class="st0" d="M11,17.3c19.4,18-11.2,21.3,8.6,38.1"/>
			<path class="st0" d="M28.6,11.3c13,12.2-7.6,14.4,5.8,25.7"/>
		</g>
	</g>
	<g>
		<g>
			<path class="st2" d="M37.7,65.1c2.6-3.3-0.1-9.6-4-11.4c-4.4-2-5.6-0.1-3,2.5c2.1,2.2,4.5,3.9,3.6,5.5c-1.5,2.5-5.8,1.4-10.6-2.9
				C25.6,67.7,34.7,68.9,37.7,65.1z"/>
			<circle class="st2" cx="32.4" cy="55.4" r="0.7"/>
			<path class="st2" d="M34.3,60.2c1,1.6,3.5,1.1,4.3,0.4"/>
			<path class="st2" d="M33.6,62.4c0.3,1.1,1.6,3.2,3.3,3.4"/>
			<path class="st2" d="M31.8,63c-0.7,0.7-0.7,3.2,0.5,4.1"/>
			<path class="st2" d="M25.2,60.1c-0.7-0.8-0.5-2.6-0.5-2.6s1.8,1.3,3.8,4.7"/>
			<path class="st2" d="M29.7,51c1.2-0.2,2,1.3,2.3,2.1"/>
			<path class="st2" d="M27,51.3c1.2-0.2,2.5,0.9,2.8,1.8"/>
			<path class="st2" d="M26.7,53.1c0.5,1,1.7,1.5,2.8,1.6"/>
			<path class="st2" d="M26.4,55.1c1.7,1.8,4.2,2.3,5.1,1.9"/>
		</g>
		<g>
			<path class="st2" d="M66.4,65.2C66.4,65.2,66.5,65.2,66.4,65.2c-0.3-0.3-0.7-0.6-1-1c-1.1-1.5,1.2-3.4,3.1-5.8
				c2.3-2.8,1-4.7-3.2-2.2c-3.4,2-5.4,7.6-3.6,10.8C63.4,66.5,64.9,65.9,66.4,65.2z"/>
			<circle class="st2" cx="66.8" cy="57.8" r="0.7"/>
			<path class="st2" d="M65.4,62.8c-0.9,1.7-3.4,1.5-4.2,0.8"/>
			<path class="st2" d="M69.1,53.1c-1.2-0.1-1.9,1.4-2.1,2.3"/>
			<path class="st2" d="M71.8,53.2c-1.2-0.1-2.4,1.1-2.6,2"/>
			<path class="st2" d="M72.3,55c-0.4,1-1.6,1.6-2.7,1.9"/>
			<path class="st2" d="M72.8,57c-1.6,2-3.9,2.7-4.9,2.4"/>
		</g>
		<g>
			<path class="st2" d="M25.6,77c-3.9,1.1-4.2-0.7-5.4-1c-0.1,0.4-0.6,0.9-0.8,0.8c-0.9-0.2-2.1-1.3-2.1-1.8c0-0.3,0.3-0.7,0.5-0.8
				c-1.5-2.3-1.5-6-0.9-8.8c-1.3,1.6-2.2,3.2-2.6,4.9c0.3,0,0.7,0.2,0.7,0.4c0.2,0.9-0.1,2.4-0.5,2.6c-0.2,0.1-0.4,0.1-0.6,0.1
				c0,0.8,0.2,1.6,0.5,2.4c0.1,0,0.3,0,0.4,0.1c0.8,0.5,1.5,1.8,1.4,2.3c0,0.1-0.1,0.2-0.1,0.2c0.7,0.7,0.3,0.6,1.3,1L25.6,77z"/>
			<path class="st2" d="M14.3,70.2c-0.3,0-0.5,0-0.7,0.1c-0.4,0.3-0.6,2.1-0.3,2.7c0.1,0.2,0.4,0.3,0.6,0.3"/>
			<path class="st2" d="M14.3,75.8c-0.4,0.1-0.8,0.4-0.9,0.8c-0.1,0.5,0.9,2,1.6,2.2c0.3,0.1,0.7-0.2,0.9-0.5"/>
			<path class="st2" d="M20.2,76c0-0.1,0.1-0.2,0-0.3c-0.1-0.5-1.4-1.6-2.1-1.6c-0.1,0-0.2,0.1-0.3,0.1"/>
		</g>
		<g>
			<path class="st2" d="M78.7,48.9c1.7-1.4,2.6-2.7,2.9-4c0.4,0.1,1-0.1,1.1-0.3c0.3-0.9-0.1-2.5-0.5-2.7c-0.3-0.2-0.7-0.1-1,0
				c-1.2-2.4-4.5-4.3-7.3-5.1c2-0.3,3.9-0.3,5.6,0.1c-0.1,0.3-0.2,0.7,0,0.9c0.7,0.6,2.1,1.1,2.5,0.8c0.2-0.1,0.3-0.3,0.4-0.5
				c0.7,0.4,1.3,1,1.8,1.6c-0.1,0.1-0.1,0.2-0.1,0.4c0.1,0.9,0.8,2.2,1.3,2.3c0.1,0,0.2,0,0.3,0c0.3,0.9,0.4,2,0.3,3.1
				c-0.3,0-0.5,0-0.6,0.2c-0.5,0.8-0.8,2.5-0.5,2.8c0.1,0.1,0.2,0.2,0.3,0.2c-0.4,0.9-0.9,1.9-1.5,3"/>
			<path class="st2" d="M78.7,48.9c2.6-0.8,5.9,1,4.9,2.7C82.8,52.9,77.6,49.8,78.7,48.9z"/>
			<path class="st2" d="M79.4,36.9c0.1-0.2,0.3-0.5,0.5-0.5c0.4-0.2,2.1,0.5,2.5,1.1c0.1,0.2,0.1,0.4-0.1,0.7"/>
			<path class="st2" d="M85.6,42.3c0.4,0,0.8-0.3,0.9-0.6c0.1-0.7-0.7-2.3-1.2-2.5c-0.4-0.1-0.9,0.1-1.1,0.4"/>
			<path class="st2" d="M85.1,48.6c0.4,0.2,0.9,0.2,1.1,0c0.6-0.5,0.9-2.4,0.6-2.8c-0.2-0.2-0.5-0.4-0.9-0.4"/>
			<path class="st2" d="M81.5,44.9c-0.1,0-0.2-0.1-0.3-0.1c-0.4-0.3-0.7-2-0.4-2.6c0-0.1,0.2-0.2,0.3-0.2"/>
		</g>
		<g>
			<circle class="st2" cx="46.6" cy="49.5" r="1.5"/>
			<circle class="st2" cx="62.8" cy="48.5" r="1.5"/>
			<circle class="st2" cx="67.9" cy="37.3" r="1.5"/>
			<circle class="st2" cx="36.4" cy="71.9" r="1.5"/>
			<circle class="st2" cx="48.6" cy="65.8" r="1.5"/>
			<circle class="st2" cx="42.5" cy="62.7" r="1.5"/>
			<circle class="st2" cx="87.2" cy="54.6" r="1.5"/>
			<circle class="st2" cx="75" cy="47.5" r="1.5"/>
			<circle class="st2" cx="15" cy="60.7" r="1.5"/>
			<circle class="st2" cx="23.2" cy="68.8" r="1.5"/>
			<circle class="st2" cx="55.7" cy="56.6" r="1.5"/>
		</g>
	</g>
</g>
</svg>
