<?xml version="1.0" encoding="utf-8"?>
<!-- Generator: Adobe Illustrator 22.0.1, SVG Export Plug-In . SVG Version: 6.00 Build 0)  -->
<svg version="1.1" id="fun" xmlns="http://www.w3.org/2000/svg" xmlns:xlink="http://www.w3.org/1999/xlink" x="0px" y="0px"
	 viewBox="0 0 150 150" style="enable-background:new 0 0 150 150;" xml:space="preserve">
<style type="text/css">
	.st0{fill:none;stroke:#05C88C;stroke-width:2;stroke-linecap:round;stroke-linejoin:round;stroke-miterlimit:10;}
	.st1{fill:none;stroke:#05C88C;stroke-width:3;stroke-linecap:round;stroke-linejoin:round;stroke-miterlimit:10;}
</style>
<g>
	<g>
		<polyline class="st0" points="82.9,105.7 7.5,147.5 34.2,87.5 		"/>
		<path class="st0" d="M82.9,105.7c-6,4.6-18.9,0.6-28.9-8.4c-11.1-10-16.2-22.5-11.4-27.8c4.8-5.4,17.8-1.6,28.9,8.4
			S88.6,101.3,82.9,105.7z"/>
	</g>
	<g>
		<circle class="st0" cx="47.8" cy="109.4" r="5.7"/>
		<path class="st0" d="M26.9,115.9c0.8,0,1.6,0.1,2.3,0.4c2.9,1.2,4.4,4.5,3.2,7.4s-4.5,4.4-7.4,3.2c-0.9-0.4-1.7-1-2.3-1.7"/>
	</g>
	<g>
		<path class="st0" d="M62.7,61.2C92.1,18.6,46.6,27.6,76.4,5.7"/>
		<path class="st0" d="M80.8,53.2C94,45.4,100.5,32.4,99,20.6"/>
		<path class="st0" d="M84.3,76.6c9.7-41.2,34-7.7,50.7-42.6"/>
		<path class="st0" d="M123.1,68.2c3.6-7,12-9.8,19.3-9.8"/>
		<path class="st0" d="M89,84.3c29.3-16.1,23.3,12.1,47.3-2.3"/>
		<g>
			<circle class="st1" cx="57.8" cy="40.9" r="0.4"/>
			<circle class="st1" cx="82.6" cy="18.6" r="0.4"/>
			<circle class="st1" cx="123.9" cy="8.7" r="0.4"/>
			<circle class="st1" cx="94.1" cy="2.9" r="0.4"/>
			<circle class="st1" cx="115.6" cy="31" r="0.4"/>
			<circle class="st1" cx="141.2" cy="21.1" r="0.4"/>
			<circle class="st1" cx="109" cy="67.4" r="0.4"/>
			<circle class="st1" cx="142.1" cy="73.1" r="0.4"/>
		</g>
	</g>
</g>
</svg>
