<?xml version="1.0" encoding="utf-8"?>
<!-- Generator: Adobe Illustrator 17.0.0, SVG Export Plug-In . SVG Version: 6.00 Build 0)  -->
<!DOCTYPE svg PUBLIC "-//W3C//DTD SVG 1.1//EN" "http://www.w3.org/Graphics/SVG/1.1/DTD/svg11.dtd">
<svg version="1.1" id="Capa_1" xmlns="http://www.w3.org/2000/svg" xmlns:xlink="http://www.w3.org/1999/xlink" x="0px" y="0px"
	 width="100px" height="100px" viewBox="150 150 100 100" enable-background="new 150 150 100 100" xml:space="preserve">
<text transform="matrix(1 0 0 1 250 228.3533)" display="none" font-family="'Sansita-Bold'" font-size="85">Honey Comb CRM</text>
<g>
	<g>
		<path d="M211.998,244.125h-23.996l-6.739-11.672h-13.478l-11.998-20.781L162.526,200l-6.739-11.672l11.998-20.781h13.477
			l6.739-11.672h23.996l6.739,11.672h13.477l11.998,20.781L237.474,200l6.739,11.672l-11.998,20.781h-13.478L211.998,244.125z
			 M189.62,241.322h20.76l6.739-11.672h13.478l10.38-17.978L234.238,200l6.739-11.672l-10.38-17.978h-13.477l-6.739-11.672h-20.76
			l-6.739,11.672h-13.477l-10.38,17.978L165.762,200l-6.739,11.672l10.38,17.978h13.478L189.62,241.322z"/>
	</g>
	<path fill="#EF9325" d="M211.189,242.724h-22.378l-6.739-11.672h-13.478l-11.189-19.38L164.144,200l-6.739-11.672l11.189-19.38
		h13.477l6.739-11.672h22.378l6.739,11.672h13.477l11.189,19.38L235.856,200l6.739,11.672l-11.189,19.38h-13.478L211.189,242.724z
		 M196.093,230.11h7.814l6.739-11.672h13.478l3.907-6.767L221.291,200l6.739-11.672l-3.907-6.767h-13.477l-6.739-11.672h-7.814
		l-6.739,11.672h-13.477l-3.907,6.767L178.709,200l-6.739,11.672l3.907,6.767h13.478L196.093,230.11z"/>
	<path d="M208.357,237.819h-16.714l-6.739-11.672h-13.478l-8.357-14.475L169.808,200l-6.739-11.672l8.357-14.475h13.477
		l6.739-11.672h16.714l6.739,11.672h13.477l8.357,14.475L230.192,200l6.739,11.672l-8.357,14.475h-13.478L208.357,237.819z
		 M193.261,235.016h13.478l6.739-11.672h13.478l6.739-11.672L226.955,200l6.739-11.672l-6.739-11.672h-13.477l-6.739-11.672h-13.478
		l-6.739,11.672h-13.477l-6.739,11.672L173.045,200l-6.739,11.672l6.739,11.672h13.478L193.261,235.016z"/>
	<path fill="#FFFFFF" d="M207.548,236.417h-15.096l-6.739-11.672h-13.478l-7.548-13.073L171.427,200l-6.739-11.672l7.548-13.073
		h13.477l6.739-11.672h15.096l6.739,11.672h13.477l7.548,13.073L228.573,200l6.739,11.672l-7.548,13.073h-13.478L207.548,236.417z"
		/>
	<g>
		<g>
			<path fill="#FFFFFF" d="M206.739,188.328h-13.478l-6.739-11.672l6.739-11.672h13.478l6.739,11.672L206.739,188.328z
				 M195.527,184.404h8.946l4.473-7.748l-4.473-7.748h-8.946l-4.473,7.748L195.527,184.404z"/>
			<polygon fill="#F2CA22" points="194.394,186.366 188.788,176.656 194.394,166.947 205.606,166.947 211.212,176.656 
				205.606,186.366 			"/>
			<path d="M205.93,186.927H194.07l-5.93-10.27l5.93-10.27h11.859l5.93,10.27L205.93,186.927z M194.718,185.805h10.565l5.282-9.149
				l-5.282-9.149h-10.565l-5.282,9.149L194.718,185.805z"/>
		</g>
		<g>
			<path fill="#FFFFFF" d="M206.739,211.672h-13.478L186.522,200l6.739-11.672h13.478L213.478,200L206.739,211.672z
				 M195.527,207.748h8.946l4.473-7.748l-4.473-7.748h-8.946L191.054,200L195.527,207.748z"/>
			<polygon fill="#F2CA22" points="194.394,209.71 188.788,200 194.394,190.29 205.606,190.29 211.212,200 205.606,209.71 			"/>
			<path d="M205.93,210.27H194.07l-5.93-10.27l5.93-10.27h11.859l5.93,10.27L205.93,210.27z M194.718,209.149h10.565l5.282-9.149
				l-5.282-9.149h-10.565L189.435,200L194.718,209.149z"/>
		</g>
		<g>
			<path fill="#FFFFFF" d="M206.739,235.016h-13.478l-6.739-11.672l6.739-11.672h13.478l6.739,11.672L206.739,235.016z
				 M195.527,231.091h8.946l4.473-7.748l-4.473-7.748h-8.946l-4.473,7.748L195.527,231.091z"/>
			<polygon fill="#F39A21" points="194.394,233.053 188.788,223.344 194.394,213.634 205.606,213.634 211.212,223.344 
				205.606,233.053 			"/>
			<path d="M205.93,233.614H194.07l-5.93-10.27l5.93-10.27h11.859l5.93,10.27L205.93,233.614z M194.718,232.493h10.565l5.282-9.149
				l-5.282-9.149h-10.565l-5.282,9.149L194.718,232.493z"/>
		</g>
		<g>
			<path fill="#FFFFFF" d="M226.955,223.344h-13.478l-6.739-11.672L213.478,200h13.478l6.739,11.672L226.955,223.344z
				 M215.743,219.42h8.946l4.473-7.748l-4.473-7.748h-8.946l-4.473,7.748L215.743,219.42z"/>
			<polygon fill="#F39A21" points="214.61,221.382 209.004,211.672 214.61,201.962 225.822,201.962 231.428,211.672 
				225.822,221.382 			"/>
			<path d="M226.146,221.942h-11.859l-5.93-10.27l5.93-10.27h11.859l5.93,10.27L226.146,221.942z M214.934,220.821h10.565
				l5.282-9.149l-5.282-9.149h-10.565l-5.282,9.149L214.934,220.821z"/>
		</g>
		<g>
			<path fill="#FFFFFF" d="M226.955,200h-13.478l-6.739-11.672l6.739-11.672h13.478l6.739,11.672L226.955,200z M215.743,196.076
				h8.946l4.473-7.748l-4.473-7.748h-8.946l-4.473,7.748L215.743,196.076z"/>
			<polygon fill="#F39A21" points="214.61,198.038 209.004,188.328 214.61,178.618 225.822,178.618 231.428,188.328 
				225.822,198.038 			"/>
			<path d="M226.146,198.599h-11.859l-5.93-10.27l5.93-10.27h11.859l5.93,10.27L226.146,198.599z M214.934,197.477h10.565
				l5.282-9.149l-5.282-9.149h-10.565l-5.282,9.149L214.934,197.477z"/>
		</g>
		<g>
			<path fill="#FFFFFF" d="M186.522,200h-13.478l-6.739-11.672l6.739-11.672h13.478l6.739,11.672L186.522,200z M175.311,196.076
				h8.946l4.473-7.748l-4.473-7.748h-8.946l-4.473,7.748L175.311,196.076z"/>
			<polygon fill="#F39A21" points="174.178,198.038 168.572,188.328 174.178,178.618 185.39,178.618 190.996,188.328 
				185.39,198.038 			"/>
			<path d="M185.713,198.598h-11.859l-5.93-10.27l5.93-10.27h11.859l5.93,10.27L185.713,198.598z M174.501,197.477h10.565
				l5.282-9.149l-5.282-9.149h-10.565l-5.282,9.149L174.501,197.477z"/>
		</g>
		<g>
			<path fill="#FFFFFF" d="M186.522,223.344h-13.478l-6.739-11.672L173.045,200h13.478l6.739,11.672L186.522,223.344z
				 M175.311,219.42h8.946l4.473-7.748l-4.473-7.748h-8.946l-4.473,7.748L175.311,219.42z"/>
			<polygon fill="#F39A21" points="174.178,221.382 168.572,211.672 174.178,201.962 185.39,201.962 190.996,211.672 
				185.39,221.382 			"/>
			<path d="M185.713,221.942h-11.859l-5.93-10.27l5.93-10.27h11.859l5.93,10.27L185.713,221.942z M174.501,220.821h10.565
				l5.282-9.149l-5.282-9.149h-10.565l-5.282,9.149L174.501,220.821z"/>
		</g>
	</g>
	<g>
		<polygon fill="none" points="189.892,217.508 193.261,211.672 193.261,211.672 		"/>
		<polygon fill="none" points="210.108,217.508 206.739,211.672 206.739,211.672 		"/>
		<polygon fill="none" points="210.108,205.836 213.478,200 213.478,200 		"/>
		<polygon fill="none" points="206.739,188.328 210.108,194.164 206.739,188.328 		"/>
		<polygon fill="none" points="189.049,195.623 193.261,188.328 193.261,188.328 		"/>
		<path fill="#FFFFFF" d="M206.739,188.328L206.739,188.328L206.739,188.328l3.369-5.836l3.369-5.836l-6.739-11.672h-13.478
			l-6.739,11.672l2.527,4.377l4.212,7.295l0,0l0,0l-4.212,7.295L186.522,200l3.369,5.836l3.369,5.836l0,0l0,0h13.478l0,0l0,0
			l3.369-5.836l3.369-5.836l-3.369-5.836L206.739,188.328z M188.141,176.656l5.93-10.27h11.859l5.93,10.27l-5.93,10.27H194.07
			L188.141,176.656z M205.93,210.27H194.07l-5.93-10.27l5.93-10.27h11.859l5.93,10.27L205.93,210.27z"/>
		<path fill="#FFFFFF" d="M206.739,211.672h-13.478l-3.369,5.836l-3.369,5.836l6.739,11.672h13.478l6.739-11.672l-3.369-5.836
			L206.739,211.672z M205.93,233.614H194.07l-5.93-10.27l5.93-10.27h11.859l5.93,10.27L205.93,233.614z"/>
		<polygon fill="#F2CA22" points="205.282,214.195 194.718,214.195 189.435,223.344 194.718,232.493 205.282,232.493 
			210.565,223.344 		"/>
		<path d="M194.07,213.073l-5.93,10.27l5.93,10.27h11.859l5.93-10.27l-5.93-10.27H194.07z M194.718,232.493l-5.282-9.149
			l5.282-9.149h10.565l5.282,9.149l-5.282,9.149H194.718z"/>
		<path fill="#FFFFFF" d="M213.478,200l-3.369,5.836l-3.369,5.836l0,0l3.369,5.836l3.369,5.836l0,0h13.478l6.739-11.672L226.955,200
			H213.478z M226.146,221.942h-11.859l-5.93-10.27l5.93-10.27h11.859l5.93,10.27L226.146,221.942z"/>
		<polygon fill="#F2CA22" points="225.499,202.523 214.934,202.523 209.652,211.672 214.934,220.821 225.499,220.821 
			230.781,211.672 		"/>
		<path d="M214.287,201.401l-5.93,10.27l5.93,10.27h11.859l5.93-10.27l-5.93-10.27H214.287z M214.934,220.821l-5.282-9.149
			l5.282-9.149h10.565l5.282,9.149l-5.282,9.149H214.934z"/>
		<path fill="#FFFFFF" d="M206.739,188.328l3.369,5.836l3.369,5.836l0,0h13.478l6.739-11.672l-6.739-11.672h-13.478l-3.369,5.836
			L206.739,188.328L206.739,188.328z M214.287,178.058h11.859l5.93,10.27l-5.93,10.27h-11.859l-5.93-10.27L214.287,178.058z"/>
		<polygon fill="#F2CA22" points="214.934,197.477 225.499,197.477 230.781,188.328 225.499,179.179 214.934,179.179 
			209.652,188.328 		"/>
		<path d="M214.287,198.599h11.859l5.93-10.27l-5.93-10.27h-11.859l-5.93,10.27L214.287,198.599z M225.499,179.179l5.282,9.149
			l-5.282,9.149h-10.565l-5.282-9.149l5.282-9.149H225.499z"/>
		<path fill="#FFFFFF" d="M193.261,188.328L193.261,188.328l-4.212-7.295l-2.527-4.377h-13.478l-6.739,11.672L173.045,200h13.478
			l0,0l2.527-4.377L193.261,188.328z M185.713,198.598h-11.859l-5.93-10.27l5.93-10.27h11.859l5.93,10.27L185.713,198.598z"/>
		<polygon fill="#F2CA22" points="185.066,179.179 174.501,179.179 169.219,188.328 174.501,197.477 185.066,197.477 
			190.348,188.328 		"/>
		<path d="M185.713,178.058h-11.859l-5.93,10.27l5.93,10.27h11.859l5.93-10.27L185.713,178.058z M174.501,197.477l-5.282-9.149
			l5.282-9.149h10.565l5.282,9.149l-5.282,9.149H174.501z"/>
		<path fill="#FFFFFF" d="M193.261,211.672L193.261,211.672l-3.369-5.836L186.522,200h-13.478l-6.739,11.672l6.739,11.672h13.478
			l0,0l3.369-5.836L193.261,211.672z M185.713,221.942h-11.859l-5.93-10.27l5.93-10.27h11.859l5.93,10.27L185.713,221.942z"/>
		<polygon fill="#F2CA22" points="185.066,202.523 174.501,202.523 169.219,211.672 174.501,220.821 185.066,220.821 
			190.348,211.672 		"/>
		<path d="M185.713,201.401h-11.859l-5.93,10.27l5.93,10.27h11.859l5.93-10.27L185.713,201.401z M174.501,220.821l-5.282-9.149
			l5.282-9.149h10.565l5.282,9.149l-5.282,9.149H174.501z"/>
	</g>
</g>
</svg>
