<?xml version="1.0" encoding="utf-8"?>
<!-- Generator: Adobe Illustrator 22.0.1, SVG Export Plug-In . SVG Version: 6.00 Build 0)  -->
<svg version="1.1" id="ipad_1_" xmlns="http://www.w3.org/2000/svg" xmlns:xlink="http://www.w3.org/1999/xlink" x="0px" y="0px"
	 viewBox="0 0 500 720" style="enable-background:new 0 0 500 720;" xml:space="preserve">
<style type="text/css">
	.st0{fill:#A5A5A5;}
	.st1{fill:#F3F3F3;}
	.st2{fill:#FFFFFF;stroke:#A5A5A5;stroke-width:0.25;stroke-miterlimit:10;}
</style>
<g id="tablet">
	<path id="border" class="st0" d="M0,691.1V28.8C0,13,12.8,0.2,28.6,0.2H472c15.5,0,28,12.6,28,28v662.9c0,15.8-12.8,28.6-28.6,28.6
		H28.6C12.8,719.8,0,706.9,0,691.1z"/>
	<path id="case" class="st1" d="M3.2,691.7V28.2C3.2,14.5,14.3,3.4,28,3.4h444.7c13.3,0,24,10.8,24,24v664.3
		c0,13.7-11.1,24.8-24.8,24.8H28C14.3,716.5,3.2,705.4,3.2,691.7z"/>
	<path id="button" class="st0" d="M250,676.5c-8.4,0-15.2,6.8-15.2,15.2s6.8,15.2,15.2,15.2s15.2-6.8,15.2-15.2
		S258.4,676.5,250,676.5z M250,704.5c-7.1,0-12.8-5.8-12.8-12.8s5.8-12.8,12.8-12.8s12.8,5.8,12.8,12.8S257.1,704.5,250,704.5z"/>
	<path id="screen" class="st2" d="M481.6,53.6v611.3c0,1.1-0.9,2-2,2H20.8c-1.1,0-2-0.9-2-2V53.6c0-1.1,0.9-2,2-2h458.8
		C480.7,51.6,481.6,52.5,481.6,53.6z"/>
	<circle id="cam" class="st0" cx="250" cy="27.8" r="3.6"/>
</g>
</svg>
