<?xml version="1.0" encoding="utf-8"?>
<!-- Generator: Adobe Illustrator 22.0.1, SVG Export Plug-In . SVG Version: 6.00 Build 0)  -->
<svg version="1.1" id="iphonea" xmlns="http://www.w3.org/2000/svg" xmlns:xlink="http://www.w3.org/1999/xlink" x="0px" y="0px"
	 viewBox="0 0 500 971.1" style="enable-background:new 0 0 500 971.1;" xml:space="preserve">
<style type="text/css">
	.st0{fill:#7A7A7A;}
	.st1{fill:#A5A5A5;}
	.st2{fill:#F3F3F3;}
	.st3{fill:#FFFFFF;stroke:#A5A5A5;stroke-width:0.25;stroke-miterlimit:10;}
</style>
<g id="mobil">
	<g id="buttons">
		<path class="st0" d="M3.6,172.5L3.6,172.5c-2,0-3.6-1.6-3.6-3.6v-32.4c0-2,1.6-3.6,3.6-3.6l0,0c2,0,3.6,1.6,3.6,3.6v32.4
			C7.3,170.9,5.7,172.5,3.6,172.5z"/>
		<path class="st0" d="M3.6,293L3.6,293c-2,0-3.6-1.6-3.6-3.6v-67.5c0-2,1.6-3.6,3.6-3.6l0,0c2,0,3.6,1.6,3.6,3.6v67.4
			C7.3,291.4,5.7,293,3.6,293z"/>
		<path class="st0" d="M3.6,386.3L3.6,386.3c-2,0-3.6-1.6-3.6-3.6v-67.4c0-2,1.6-3.6,3.6-3.6l0,0c2,0,3.6,1.6,3.6,3.6v67.4
			C7.3,384.7,5.7,386.3,3.6,386.3z"/>
		<path class="st0" d="M496.4,294.5L496.4,294.5c-2,0-3.6-1.6-3.6-3.6v-68.1c0-2,1.6-3.6,3.6-3.6l0,0c2,0,3.6,1.6,3.6,3.6v68.1
			C500.1,292.9,498.5,294.5,496.4,294.5z"/>
	</g>
	<path id="border" class="st1" d="M80.7,0h338.6c42.6,0,77.1,34.5,77.1,77.1v815c0,42.6-34.5,77.1-77.1,77.1H80.7
		c-42.6,0-77.1-34.5-77.1-77.1v-815C3.6,34.5,38.1,0,80.7,0z"/>
	<path id="case" class="st2" d="M415,964.8H85C42.5,964.8,8,930.3,8,887.8V81.4C8,38.8,42.5,4.3,85,4.3h330
		c42.6,0,77.1,34.5,77.1,77.1v806.4C492.1,930.3,457.6,964.8,415,964.8z"/>
	<g id="main">
		<path id="button" class="st1" d="M251,863.7c-21.3,0-38.5,17.2-38.5,38.5s17.2,38.5,38.5,38.5s38.5-17.2,38.5-38.5
			S272.4,863.7,251,863.7z M251,934.3c-17.7,0-32.1-14.4-32.1-32.1s14.4-32.1,32.1-32.1s32.1,14.4,32.1,32.1S268.8,934.3,251,934.3z
			"/>
		<path id="screen" class="st3" d="M464.8,844.8H35.6c-1.1,0-2-0.9-2-2V129c0-1.1,0.9-2,2-2h428.9c1.1,0,2,0.9,2,2v714.1
			C466.5,844.2,465.7,844.8,464.8,844.8z"/>
		<circle id="camara" class="st1" cx="172.4" cy="69.1" r="8.6"/>
		<path id="auricular" class="st1" d="M288.9,73.1h-77.7c-2.1,0-3.9-1.8-3.9-3.9l0,0c0-2.1,1.8-3.9,3.9-3.9h77.7
			c2.1,0,3.9,1.8,3.9,3.9l0,0C292.8,71.3,291,73.1,288.9,73.1z"/>
		<circle id="micro" class="st1" cx="250" cy="37.7" r="5.1"/>
	</g>
</g>
</svg>
