<?xml version="1.0" encoding="utf-8"?>
<!-- Generator: Adobe Illustrator 22.0.1, SVG Export Plug-In . SVG Version: 6.00 Build 0)  -->
<svg version="1.1" id="Capa_1" xmlns="http://www.w3.org/2000/svg" xmlns:xlink="http://www.w3.org/1999/xlink" x="0px" y="0px"
	 viewBox="0 0 500 290" style="enable-background:new 0 0 500 290;" xml:space="preserve">
<style type="text/css">
	.st0{fill:#A5A5A5;}
	.st1{fill:#F3F3F3;}
	.st2{fill:#FFFFFF;stroke:#A5A5A5;stroke-width:0.25;stroke-miterlimit:10;}
	.st3{fill:url(#bottom_2_);}
	.st4{fill:url(#case2_2_);}
	.st5{fill:none;stroke:#A5A5A5;stroke-width:0.25;stroke-miterlimit:10;}
	.st6{fill:url(#notch_2_);}
</style>
<g id="macbook_1_">
	<g id="display_1_">
		<path id="border_1_" class="st0" d="M445.6,276.4H54.4c-4.4,0-8-3.6-8-8V16.6c0-8.8,7.2-16,16-16h375.2c8.8,0,16,7.2,16,16v251.9
			C453.6,272.9,450,276.4,445.6,276.4z"/>
		<path id="frame_2_" class="st1" d="M444,274.9H56c-4.4,0-8-3.6-8-8V18.2c0-8.8,7.2-16,16-16h372c8.8,0,16,7.2,16,16v248.7
			C452,271.4,448.4,274.9,444,274.9z"/>
		<path id="screen_1_" class="st2" d="M61.9,18.6h376.2c1.1,0,2,0.9,2,2v233.6c0,1.1-0.9,2-2,2H61.9c-1.1,0-2-0.9-2-2V20.6
			C59.9,19.5,60.8,18.6,61.9,18.6z"/>
	</g>
	<g id="footer_1_">
		
			<linearGradient id="bottom_2_" gradientUnits="userSpaceOnUse" x1="250" y1="832.817" x2="250" y2="840.0359" gradientTransform="matrix(1 0 0 1 0 -550.7)">
			<stop  offset="0" style="stop-color:#A5A5A5"/>
			<stop  offset="0.1911" style="stop-color:#A1A1A1"/>
			<stop  offset="0.389" style="stop-color:#949494"/>
			<stop  offset="0.5902" style="stop-color:#808080"/>
			<stop  offset="0.7936" style="stop-color:#636363"/>
			<stop  offset="0.9969" style="stop-color:#3E3E3E"/>
			<stop  offset="1" style="stop-color:#3D3D3D"/>
		</linearGradient>
		<path id="bottom_1_" class="st3" d="M0.4,282.1c0,0,4.4,6.8,11.1,7.2h477c6.7-0.4,11.1-7.2,11.1-7.2H0.4z"/>
		<g id="case_2_">
			
				<linearGradient id="case2_2_" gradientUnits="userSpaceOnUse" x1="0.4" y1="828.5" x2="499.6" y2="828.5" gradientTransform="matrix(1 0 0 1 0 -550.7)">
				<stop  offset="0" style="stop-color:#7A7A7A"/>
				<stop  offset="3.899112e-05" style="stop-color:#7B7C7C"/>
				<stop  offset="8.902896e-04" style="stop-color:#989B9B"/>
				<stop  offset="1.835190e-03" style="stop-color:#B1B6B5"/>
				<stop  offset="2.921399e-03" style="stop-color:#C5CCCB"/>
				<stop  offset="4.190868e-03" style="stop-color:#D4DDDC"/>
				<stop  offset="5.760536e-03" style="stop-color:#DFE8E7"/>
				<stop  offset="7.962573e-03" style="stop-color:#E5EFEE"/>
				<stop  offset="1.407558e-02" style="stop-color:#E7F1F0"/>
				<stop  offset="3.000000e-02" style="stop-color:#A5A5A5"/>
				<stop  offset="5.557034e-02" style="stop-color:#B8B8B8"/>
				<stop  offset="9.461629e-02" style="stop-color:#CECECE"/>
				<stop  offset="0.1407" style="stop-color:#DFDFDF"/>
				<stop  offset="0.1978" style="stop-color:#EAEAEA"/>
				<stop  offset="0.2778" style="stop-color:#F1F1F1"/>
				<stop  offset="0.5" style="stop-color:#F3F3F3"/>
				<stop  offset="0.7222" style="stop-color:#F1F1F1"/>
				<stop  offset="0.8022" style="stop-color:#EAEAEA"/>
				<stop  offset="0.8593" style="stop-color:#DFDFDF"/>
				<stop  offset="0.9054" style="stop-color:#CECECE"/>
				<stop  offset="0.9444" style="stop-color:#B8B8B8"/>
				<stop  offset="0.97" style="stop-color:#A5A5A5"/>
				<stop  offset="0.985" style="stop-color:#E7F1F0"/>
				<stop  offset="0.998" style="stop-color:#7B7C7C"/>
				<stop  offset="0.998" style="stop-color:#7B7C7C"/>
				<stop  offset="0.998" style="stop-color:#7A7A7A"/>
			</linearGradient>
			<rect id="case2_1_" x="0.4" y="273.4" class="st4" width="499.2" height="8.8"/>
			<line id="sombra" class="st5" x1="0.4" y1="273.4" x2="499.6" y2="273.4"/>
			
				<linearGradient id="notch_2_" gradientUnits="userSpaceOnUse" x1="214.9" y1="826.9" x2="285.1" y2="826.9" gradientTransform="matrix(1 0 0 1 0 -550.7)">
				<stop  offset="0" style="stop-color:#A5A5A5"/>
				<stop  offset="2.083039e-02" style="stop-color:#AEAEAE"/>
				<stop  offset="7.503480e-02" style="stop-color:#BFBFBF"/>
				<stop  offset="0.1425" style="stop-color:#CACACA"/>
				<stop  offset="0.2372" style="stop-color:#D1D1D1"/>
				<stop  offset="0.5" style="stop-color:#D3D3D3"/>
				<stop  offset="0.7628" style="stop-color:#D1D1D1"/>
				<stop  offset="0.8575" style="stop-color:#CACACA"/>
				<stop  offset="0.925" style="stop-color:#BFBFBF"/>
				<stop  offset="0.9792" style="stop-color:#AEAEAE"/>
				<stop  offset="1" style="stop-color:#A5A5A5"/>
			</linearGradient>
			<path id="notch_1_" class="st6" d="M214.9,273.4c0,0,1.1,5.6,6.1,5.6h58c5,0,6.1-5.6,6.1-5.6H214.9z"/>
		</g>
	</g>
</g>
</svg>
