<?xml version="1.0" encoding="utf-8"?>
<!-- Generator: Adobe Illustrator 22.0.1, SVG Export Plug-In . SVG Version: 6.00 Build 0)  -->
<svg version="1.1" id="Capa_1" xmlns="http://www.w3.org/2000/svg" xmlns:xlink="http://www.w3.org/1999/xlink" x="0px" y="0px"
	 viewBox="0 0 500 415" style="enable-background:new 0 0 500 415;" xml:space="preserve">
<style type="text/css">
	.st0{fill:url(#foot_1_);}
	.st1{fill:#F3F3F3;}
	.st2{fill:#3D3D3D;}
	.st3{fill:#FFFFFF;stroke:#A5A5A5;stroke-width:0.25;stroke-miterlimit:10;}
</style>
<g id="pc">
	
		<linearGradient id="foot_1_" gradientUnits="userSpaceOnUse" x1="250" y1="71.99" x2="250" y2="0.89" gradientTransform="matrix(1 0 0 -1 0 415.89)">
		<stop  offset="0" style="stop-color:#7A7A7A"/>
		<stop  offset="3.758232e-02" style="stop-color:#8C8C8C"/>
		<stop  offset="0.1069" style="stop-color:#A6A6A6"/>
		<stop  offset="0.1835" style="stop-color:#BABABA"/>
		<stop  offset="0.2702" style="stop-color:#C8C8C8"/>
		<stop  offset="0.3753" style="stop-color:#D0D0D0"/>
		<stop  offset="0.55" style="stop-color:#D3D3D3"/>
		<stop  offset="0.74" style="stop-color:#7A7A7A"/>
		<stop  offset="0.85" style="stop-color:#D3D3D3"/>
		<stop  offset="0.8977" style="stop-color:#D0D0D0"/>
		<stop  offset="0.9263" style="stop-color:#C8C8C8"/>
		<stop  offset="0.9499" style="stop-color:#BABABA"/>
		<stop  offset="0.9708" style="stop-color:#A6A6A6"/>
		<stop  offset="0.9898" style="stop-color:#8C8C8C"/>
		<stop  offset="1" style="stop-color:#7A7A7A"/>
	</linearGradient>
	<path id="foot" class="st0" d="M318,404.7c-16.4-8.8-14-10.3-18.7-60.8h-98.6c-4.7,50.5-2.3,52-18.7,60.8
		c-16.2,8.7-8.2,10.2,18.7,10.3h98.6C326.2,414.8,334.2,413.4,318,404.7z"/>
	<g id="pantalla">
		<path id="frame" class="st1" d="M487.1,343.9H12.9C5.8,343.9,0,338.1,0,331V12.9C0,5.8,5.8,0,12.9,0h474.3
			c7.1,0,12.9,5.8,12.9,12.9V331C500,338.1,494.2,343.9,487.1,343.9z"/>
		<path id="displayFoter" class="st2" d="M0,331c0,7.1,5.8,12.9,12.9,12.9h474.3c7.1,0,12.9-5.8,12.9-12.9v-32.9H0V331z"/>
		<path id="screen" class="st3" d="M478,279.6H22.1c-1.1,0-2.1-0.9-2.1-2.1V21.8c0-1.1,0.9-2.1,2.1-2.1h455.8c1.1,0,2.1,0.9,2.1,2.1
			v255.8C480,278.7,479.1,279.6,478,279.6z"/>
	</g>
</g>
</svg>
